<svg width="16" height="16" viewBox="0 0 16 16" fill="none" xmlns="http://www.w3.org/2000/svg">
<path d="M15.281 13.7305C15.3507 13.8002 15.406 13.8829 15.4437 13.974C15.4814 14.065 15.5008 14.1626 15.5008 14.2612C15.5008 14.3597 15.4814 14.4573 15.4437 14.5483C15.406 14.6394 15.3507 14.7221 15.281 14.7918C15.2114 14.8615 15.1286 14.9167 15.0376 14.9545C14.9465 14.9922 14.849 15.0116 14.7504 15.0116C14.6519 15.0116 14.5543 14.9922 14.4632 14.9545C14.3722 14.9167 14.2895 14.8615 14.2198 14.7918L8.00042 8.57147L1.78104 14.7918C1.64031 14.9325 1.44944 15.0116 1.25042 15.0116C1.05139 15.0116 0.860523 14.9325 0.719792 14.7918C0.579062 14.6511 0.5 14.4602 0.5 14.2612C0.5 14.0621 0.579062 13.8713 0.719792 13.7305L6.9401 7.51116L0.719792 1.29178C0.579062 1.15105 0.5 0.960182 0.5 0.761159C0.5 0.562136 0.579062 0.371265 0.719792 0.230534C0.860523 0.0898037 1.05139 0.0107422 1.25042 0.0107422C1.44944 0.0107422 1.64031 0.0898037 1.78104 0.230534L8.00042 6.45085L14.2198 0.230534C14.3605 0.0898037 14.5514 0.0107422 14.7504 0.0107422C14.9494 0.0107422 15.1403 0.0898037 15.281 0.230534C15.4218 0.371265 15.5008 0.562136 15.5008 0.761159C15.5008 0.960182 15.4218 1.15105 15.281 1.29178L9.06073 7.51116L15.281 13.7305Z" fill="white"/>
</svg>
