<svg width="18" height="18" viewBox="0 0 18 18" fill="none" xmlns="http://www.w3.org/2000/svg">
<path d="M7.61133 9.69431C7.90956 10.093 8.29005 10.4229 8.72699 10.6616C9.16393 10.9004 9.6471 11.0423 10.1437 11.0779C10.6404 11.1134 11.1388 11.0418 11.6053 10.8678C12.0718 10.6938 12.4954 10.4214 12.8474 10.0693L14.9308 7.98598C15.5633 7.33111 15.9132 6.45402 15.9053 5.54361C15.8974 4.63321 15.5323 3.76233 14.8885 3.11855C14.2447 2.47477 13.3738 2.1096 12.4634 2.10169C11.553 2.09378 10.6759 2.44376 10.0211 3.07626L8.82661 4.26376" stroke="white" stroke-width="1.66667" stroke-linecap="round" stroke-linejoin="round"/>
<path d="M10.3879 8.30552C10.0897 7.90682 9.70917 7.57692 9.27223 7.3382C8.83529 7.09948 8.35212 6.95752 7.85549 6.92196C7.35886 6.88639 6.8604 6.95804 6.3939 7.13206C5.9274 7.30608 5.50378 7.57839 5.15178 7.93052L3.06844 10.0139C2.43595 10.6687 2.08597 11.5458 2.09388 12.4562C2.10179 13.3666 2.46696 14.2375 3.11074 14.8813C3.75452 15.5251 4.6254 15.8902 5.5358 15.8981C6.44621 15.9061 7.3233 15.5561 7.97817 14.9236L9.16567 13.7361" stroke="white" stroke-width="1.66667" stroke-linecap="round" stroke-linejoin="round"/>
</svg>
